<svg xmlns="http://www.w3.org/2000/svg" width="22" height="22" viewBox="0 0 22 22">
  <g id="accept" transform="translate(-0.278)">
    <path id="Path_4811" data-name="Path 4811" d="M11.278,0a11,11,0,1,0,11,11,11.012,11.012,0,0,0-11-11Zm0,21.1A10.1,10.1,0,1,1,21.381,11a10.115,10.115,0,0,1-10.1,10.1Zm0,0" fill="#1ed688"/>
    <path id="Path_4812" data-name="Path 4812" d="M105.242,132.3l-7.823,7.819-3.542-3.539a.448.448,0,0,0-.634.634l3.859,3.856a.449.449,0,0,0,.634,0l8.141-8.136a.448.448,0,1,0-.634-.634Zm0,0" transform="translate(-88.281 -125.686)" fill="#1ed688"/>
  </g>
</svg>
