<svg xmlns="http://www.w3.org/2000/svg" xmlns:xlink="http://www.w3.org/1999/xlink" width="26.345" height="16.861" viewBox="0 0 26.345 16.861"><defs><style>.a{clip-rule:evenodd;}.b{clip-path:url(#a);}.c{fill-rule:evenodd;}</style><clipPath id="a"><path class="a" d="M123.748,100h26.345v16.861H123.748Z" transform="translate(0 0)"/></clipPath></defs><g class="b" transform="translate(-123.748 -100)"><path class="c" d="M131.646,105.059a1.536,1.536,0,0,0,.363-1.112,1.562,1.562,0,0,0-1.026.528,1.45,1.45,0,0,0-.368,1.078A1.29,1.29,0,0,0,131.646,105.059Zm1.009,2.59a1.58,1.58,0,0,1,.754-1.328,1.632,1.632,0,0,0-1.274-.689c-.543-.054-1.06.32-1.334.32s-.7-.311-1.15-.3a1.7,1.7,0,0,0-1.441.873,3.632,3.632,0,0,0,.443,3.512c.293.423.641.9,1.1.882.442-.017.608-.286,1.142-.286s.684.285,1.149.277.776-.432,1.067-.857a3.793,3.793,0,0,0,.481-.99A1.546,1.546,0,0,1,132.656,107.649Zm5.654-2.591a1.777,1.777,0,0,0-.679-.395,3.084,3.084,0,0,0-.967-.136,6.294,6.294,0,0,0-.711.037q-.3.033-.588.083l-.057.01v6.205h.567v-2.614a3.893,3.893,0,0,0,.65.05,3.147,3.147,0,0,0,.893-.122,2,2,0,0,0,.716-.373,1.806,1.806,0,0,0,.478-.621,2.005,2.005,0,0,0,.175-.86,1.943,1.943,0,0,0-.125-.719A1.645,1.645,0,0,0,138.309,105.058Zm-.521,2.37a1.859,1.859,0,0,1-1.225.367c-.144,0-.28-.006-.4-.018a1.9,1.9,0,0,1-.285-.048v-2.639c.075-.014.168-.027.276-.038a4.756,4.756,0,0,1,.495-.022,2.359,2.359,0,0,1,.647.084,1.491,1.491,0,0,1,.5.244,1.055,1.055,0,0,1,.317.407,1.448,1.448,0,0,1,.112.593,1.327,1.327,0,0,1-.432,1.07Zm4.384,2.853c-.006-.176-.009-.352-.009-.528v-1.725a3.253,3.253,0,0,0-.061-.62,1.573,1.573,0,0,0-.235-.577,1.313,1.313,0,0,0-.478-.424,1.643,1.643,0,0,0-.779-.163,2.486,2.486,0,0,0-.668.089,2.121,2.121,0,0,0-.625.3l-.046.032.191.448.069-.047a1.881,1.881,0,0,1,1.034-.317,1.055,1.055,0,0,1,.559.127.847.847,0,0,1,.306.315,1.2,1.2,0,0,1,.135.4,2.736,2.736,0,0,1,.032.39v.05a3.591,3.591,0,0,0-1.931.417,1.407,1.407,0,0,0-.689,1.245,1.371,1.371,0,0,0,.082.46,1.187,1.187,0,0,0,.247.41,1.216,1.216,0,0,0,.421.289,1.473,1.473,0,0,0,.589.11,1.649,1.649,0,0,0,.89-.243,1.708,1.708,0,0,0,.309-.242q.057-.057.108-.119h.022l.052.5h.546l-.015-.081A3.461,3.461,0,0,1,142.173,110.281Zm-.575-.884a.979.979,0,0,1-.042.243,1.241,1.241,0,0,1-.152.3,1.164,1.164,0,0,1-.593.448,1.388,1.388,0,0,1-.454.069.9.9,0,0,1-.3-.051.719.719,0,0,1-.251-.15.749.749,0,0,1-.176-.255.956.956,0,0,1-.067-.379.851.851,0,0,1,.194-.584,1.271,1.271,0,0,1,.505-.343,2.592,2.592,0,0,1,.682-.156,6.224,6.224,0,0,1,.654-.028Zm4.42-3.053-1.057,2.874c-.066.174-.128.348-.184.519-.027.085-.053.165-.079.242h-.02q-.04-.126-.081-.251c-.055-.169-.114-.334-.174-.492l-1.131-2.892h-.6l1.617,4.158a.478.478,0,0,1,.049.165.63.63,0,0,1-.049.166,3.019,3.019,0,0,1-.343.638,3.777,3.777,0,0,1-.354.425,1.934,1.934,0,0,1-.379.3,3.616,3.616,0,0,1-.358.188l-.061.027.2.479.063-.023c.051-.019.148-.063.294-.134a2.237,2.237,0,0,0,.485-.344,2.5,2.5,0,0,0,.408-.46,5.647,5.647,0,0,0,.356-.6c.116-.223.232-.477.345-.755s.235-.591.36-.927l1.306-3.307Zm1.755-5.993h.268l.221,0a2.957,2.957,0,0,1,.443.038,1.32,1.32,0,0,1,.374.123,1.225,1.225,0,0,1,.538.539,1.311,1.311,0,0,1,.122.374,2.927,2.927,0,0,1,.038.442c0,.073,0,.146,0,.221s0,.178,0,.268V114.5c0,.089,0,.178,0,.269q0,.11,0,.22a3,3,0,0,1-.038.443,1.313,1.313,0,0,1-.122.373,1.235,1.235,0,0,1-.539.539,1.317,1.317,0,0,1-.373.123,3.025,3.025,0,0,1-.441.038l-.222,0H125.884l-.22,0a3.075,3.075,0,0,1-.443-.038,1.3,1.3,0,0,1-.374-.123,1.233,1.233,0,0,1-.538-.539,1.314,1.314,0,0,1-.123-.374,2.946,2.946,0,0,1-.038-.442q0-.11,0-.22V102.091c0-.073,0-.147,0-.221a2.967,2.967,0,0,1,.038-.443,1.3,1.3,0,0,1,.123-.373,1.227,1.227,0,0,1,.539-.539,1.307,1.307,0,0,1,.373-.122,2.943,2.943,0,0,1,.443-.038l.22,0h21.888m0-.351h-21.89l-.228,0a3.34,3.34,0,0,0-.5.044,1.679,1.679,0,0,0-.471.155,1.59,1.59,0,0,0-.692.692,1.665,1.665,0,0,0-.155.471,3.3,3.3,0,0,0-.044.5q0,.113,0,.227v12.684q0,.114,0,.227a3.285,3.285,0,0,0,.044.495,1.663,1.663,0,0,0,.155.471,1.577,1.577,0,0,0,.692.692,1.67,1.67,0,0,0,.471.155,3.351,3.351,0,0,0,.5.043c.076,0,.151,0,.228,0h22.16l.228,0a3.359,3.359,0,0,0,.5-.043,1.679,1.679,0,0,0,.471-.155,1.575,1.575,0,0,0,.692-.692,1.654,1.654,0,0,0,.155-.471,3.294,3.294,0,0,0,.044-.495c0-.076,0-.152,0-.227s0-.18,0-.27V102.359c0-.09,0-.18,0-.27s0-.152,0-.227a3.294,3.294,0,0,0-.044-.5,1.661,1.661,0,0,0-.155-.471,1.583,1.583,0,0,0-.692-.692,1.676,1.676,0,0,0-.471-.155,3.35,3.35,0,0,0-.5-.044c-.076,0-.152,0-.228,0Z" transform="translate(-0.042 0)"/></g></svg>