<svg xmlns="http://www.w3.org/2000/svg" width="16.509" height="20.864" viewBox="0 0 16.509 20.864">
  <path id="bell" d="M69.6,16.6a3.242,3.242,0,0,1-.985-1.341A15.521,15.521,0,0,1,67.59,9.129c0-.008,0-.016,0-.023A5.92,5.92,0,0,0,64.1,3.736V2.324A2.325,2.325,0,0,0,61.785,0h-.192a2.325,2.325,0,0,0-2.32,2.324V3.736a5.92,5.92,0,0,0-3.485,5.392,15.521,15.521,0,0,1-1.027,6.133,3.241,3.241,0,0,1-.985,1.341.594.594,0,0,0-.326.676.622.622,0,0,0,.613.478h4.48a3.147,3.147,0,0,0,6.294,0h4.48a.622.622,0,0,0,.613-.478A.594.594,0,0,0,69.6,16.6ZM60.495,2.324a1.1,1.1,0,0,1,1.1-1.1h.192a1.1,1.1,0,0,1,1.1,1.1V3.34a5.92,5.92,0,0,0-2.388,0V2.324Zm1.194,17.315a1.929,1.929,0,0,1-1.924-1.882h3.849A1.929,1.929,0,0,1,61.689,19.639Zm2.461-3.107h-8.7a6.406,6.406,0,0,0,.32-.562,15.475,15.475,0,0,0,1.235-6.841,4.679,4.679,0,1,1,9.358,0c0,.008,0,.015,0,.023A15.444,15.444,0,0,0,67.6,15.97a6.41,6.41,0,0,0,.32.562Z" transform="translate(-53.434 0)" fill="#8e8e8e"/>
</svg>
