<svg xmlns="http://www.w3.org/2000/svg" xmlns:xlink="http://www.w3.org/1999/xlink" width="84.996" height="84.993" viewBox="0 0 84.996 84.993">
  <defs>
    <linearGradient id="linear-gradient" x1="0.5" y1="1" x2="0.5" gradientUnits="objectBoundingBox">
      <stop offset="0" stop-color="#dde1e8"/>
      <stop offset="1" stop-color="#f3f4f5"/>
    </linearGradient>
  </defs>
  <g id="Group_3502" data-name="Group 3502" transform="translate(-181 -196)">
    <g id="Done" transform="translate(181.016 196.016)">
      <path id="Path_13464" data-name="Path 13464" d="M84.644,42.822c0,3.611-3.412,6.725-4.3,10.057-.923,3.445.451,7.84-1.328,10.86s-6.28,4.063-8.763,6.545-3.485,6.99-6.545,8.763-7.415.372-10.86,1.328c-3.319.89-6.446,4.3-10.057,4.3s-6.725-3.412-10.057-4.3c-3.445-.923-7.84.451-10.86-1.328s-4.063-6.28-6.545-8.763S8.335,66.8,6.563,63.739,6.224,56.324,5.3,52.879C4.412,49.547,1,46.433,1,42.822S4.412,36.1,5.3,32.765C6.224,29.319,4.85,24.9,6.6,21.9s6.28-4.063,8.763-6.545S18.844,8.369,21.9,6.6s7.415-.372,10.86-1.294C36.1,4.412,39.211,1,42.822,1s6.725,3.412,10.057,4.3c3.445.923,7.866-.451,10.86,1.294s4.063,6.28,6.545,8.763,6.99,3.485,8.763,6.545.372,7.415,1.328,10.86C81.232,36.1,84.644,39.211,84.644,42.822Z" transform="translate(-0.342 -0.342)" fill="#1ed688"/>
      <circle id="Ellipse_12" data-name="Ellipse 12" cx="30.537" cy="30.537" r="30.537" transform="translate(11.944 11.944)" fill="url(#linear-gradient)"/>
      <path id="Path_13470" data-name="Path 13470" d="M48.537,18a30.537,30.537,0,0,1,30.47,32.528,30.537,30.537,0,0,0-60.94,0A30.537,30.537,0,0,1,48.537,18Z" transform="translate(-6.057 -6.056)" fill="#c7cdd8"/>
      <path id="Path_13471" data-name="Path 13471" d="M49.67,72.049l-12.5-12.5,3.757-3.757,8.743,8.743L69.034,45.17l3.757,3.757Z" transform="translate(-12.501 -15.19)" fill="#1ed688"/>
      <path id="Path_13472" data-name="Path 13472" d="M48.2,17A31.2,31.2,0,1,0,79.4,48.2,31.2,31.2,0,0,0,48.2,17Zm0,61.073A29.873,29.873,0,1,1,78.073,48.2,29.873,29.873,0,0,1,48.2,78.073Z" transform="translate(-5.72 -5.72)" fill="#47566a"/>
      <path id="Path_13473" data-name="Path 13473" d="M82.569,36.187c-2.078-3.465-2.31-4.2-2.25-8.471.08-6.107-.77-7.641-6.194-10.661-3.638-2.025-4.182-2.569-6.22-6.22-3.047-5.47-4.647-6.273-10.661-6.194-4.268.053-4.992-.166-8.471-2.25-5.357-3.206-7.223-3.213-12.613,0-3.445,2.084-4.176,2.31-8.444,2.25-6.041-.08-7.614.724-10.661,6.194-2.025,3.638-2.569,4.182-6.22,6.22C5.4,20.082,4.568,21.616,4.641,27.716c.06,4.255-.159,4.985-2.25,8.471-3.206,5.357-3.213,7.223,0,12.613,2.078,3.439,2.31,4.169,2.25,8.444-.08,6.107.77,7.641,6.194,10.661,3.638,1.992,4.182,2.569,6.22,6.22,3.054,5.483,4.647,6.273,10.661,6.194,4.268-.053,4.992.166,8.471,2.25,5.357,3.206,7.223,3.213,12.613,0,3.472-2.078,4.2-2.3,8.471-2.25,6.087.073,7.628-.743,10.661-6.194,1.992-3.638,2.569-4.182,6.22-6.22,5.437-3.027,6.267-4.561,6.194-10.661-.06-4.255.159-4.985,2.25-8.471C85.776,43.416,85.782,41.551,82.569,36.187Zm-1.142,11.9c-2.2,3.678-2.5,4.647-2.436,9.174.073,5.609-.524,6.7-5.51,9.48-3.864,2.151-4.58,2.868-6.738,6.738-2.781,5-3.877,5.576-9.48,5.51-4.521-.06-5.483.232-9.174,2.436-4.9,2.941-6.28,2.961-11.219,0-3.18-1.905-4.348-2.436-8.066-2.436-2.363,0-5.032.239-6.911-.85-2.848-1.646-3.844-6.094-6.406-8.63s-7.01-3.6-8.656-6.453S6.547,55.9,5.6,52.365C4.695,48.979,1.322,45.8,1.322,42.48S4.708,35.928,5.6,32.6c.943-3.532-.392-7.9,1.228-10.694s6.094-3.844,8.63-6.406,3.565-7.01,6.406-8.63,7.169-.285,10.7-1.228c3.412-.943,6.592-4.315,9.911-4.315S49.032,4.708,52.365,5.6c3.538.943,7.9-.392,10.694,1.228s3.844,6.094,6.406,8.63,7.01,3.565,8.63,6.406.285,7.163,1.228,10.7c.943,3.412,4.315,6.592,4.315,9.911C83.638,44.405,82.516,46.277,81.428,48.09Z" fill="#47566a"/>
      <path id="Path_13474" data-name="Path 13474" d="M69.152,44.354a.7.7,0,0,0-.956,0L49.309,63.24l-8.265-8.265a.7.7,0,0,0-.956,0c-4.023,4.023-3.983,3.844-3.983,4.235s-.783-.551,12.726,12.978a.664.664,0,0,0,.956,0c24.7-24.7,23.321-23.181,23.321-23.6S73.168,48.37,69.152,44.354ZM49.309,70.748,37.765,59.211l2.8-2.8,8.265,8.265a.664.664,0,0,0,.956,0L68.674,45.788l2.8,2.8Z" transform="translate(-12.14 -14.852)" fill="#47566a"/>
    </g>
  </g>
</svg>
