<svg id="E-mail" xmlns="http://www.w3.org/2000/svg" width="24.382" height="17.144" viewBox="0 0 24.382 17.144">
  <path id="Path_4755" data-name="Path 4755" d="M22.239,76H2.143A2.146,2.146,0,0,0,0,78.143V91a2.146,2.146,0,0,0,2.143,2.143h20.1A2.145,2.145,0,0,0,24.382,91V78.143A2.145,2.145,0,0,0,22.239,76Zm-.3,1.429-8.233,8.189a2.143,2.143,0,0,1-3.032,0L2.443,77.429ZM1.429,90.71V78.435L7.6,84.576Zm1.015,1.005,6.171-6.132,1.05,1.045a3.572,3.572,0,0,0,5.05,0l1.052-1.046,6.171,6.132Zm20.51-1.005L16.78,84.576l6.174-6.141Z" transform="translate(0 -76)" fill="#f93945"/>
</svg>
