<svg id="google-symbol" xmlns="http://www.w3.org/2000/svg" width="19.165" height="19.165" viewBox="0 0 19.165 19.165">
  <path id="Path_4745" data-name="Path 4745" d="M19.011,7.809a.154.154,0,0,1,.154.154v1.62A9.582,9.582,0,1,1,16.246,2.7a.155.155,0,0,1,0,.221L13.957,5.208a.154.154,0,0,1-.215,0,6.034,6.034,0,1,0,1.61,6.146H9.737a.154.154,0,0,1-.154-.154V7.963a.154.154,0,0,1,.154-.154h9.274Z" transform="translate(0 0)" fill="#2196f3"/>
  <g id="Group_3147" data-name="Group 3147" transform="translate(9.003 7.809)">
    <path id="Path_4746" data-name="Path 4746" d="M250.538,208.612h-1.157a.154.154,0,0,1,.154.154v1.62a9.574,9.574,0,0,1-9,9.565q.254.015.511.017a9.575,9.575,0,0,0,9.65-9.582v-1.62A.154.154,0,0,0,250.538,208.612Z" transform="translate(-240.531 -208.612)" fill="#1e88e5"/>
  </g>
  <path id="Path_4747" data-name="Path 4747" d="M34.722,7.055l-2.91-2.1A9.585,9.585,0,0,1,46.867,2.7a.155.155,0,0,1,0,.221L44.578,5.208a.154.154,0,0,1-.214,0,6.036,6.036,0,0,0-9.642,1.844Z" transform="translate(-30.621 0)" fill="#f44336"/>
  <path id="Path_4748" data-name="Path 4748" d="M87.115,97.677l.84.607a6.038,6.038,0,0,1,4.854-3.475l.048-.005q-.285-.027-.577-.027A6.017,6.017,0,0,0,87.115,97.677Z" transform="translate(-83.854 -91.229)" fill="#e53935"/>
  <path id="Path_4749" data-name="Path 4749" d="M246.63,2.7a.155.155,0,0,1,0,.221l-1.86,1.86a6.068,6.068,0,0,1,.511.435.154.154,0,0,0,.215,0l2.291-2.291a.155.155,0,0,0,0-.221A9.553,9.553,0,0,0,241.124,0c-.194,0-.387.006-.578.018A9.552,9.552,0,0,1,246.63,2.7Z" transform="translate(-231.541 0)" fill="#e53935"/>
  <path id="Path_4750" data-name="Path 4750" d="M42.582,320.363a9.584,9.584,0,0,1-15.6-2.227l2.971-2.036a6.036,6.036,0,0,0,9.72,2.16Z" transform="translate(-25.97 -304.268)" fill="#4caf50"/>
  <path id="Path_4751" data-name="Path 4751" d="M83.826,316.1l-.876.6a6.034,6.034,0,0,0,5.321,3.185c.195,0,.387-.01.577-.028A6.04,6.04,0,0,1,83.826,316.1Z" transform="translate(-79.845 -304.269)" fill="#43a047"/>
  <path id="Path_4752" data-name="Path 4752" d="M241.163,419.805a9.556,9.556,0,0,0,7.029-3.07l-.713-.515a9.565,9.565,0,0,1-6.893,3.568Q240.872,419.8,241.163,419.805Z" transform="translate(-231.581 -400.64)" fill="#43a047"/>
  <path id="Path_4753" data-name="Path 4753" d="M3.548,136.936a6.017,6.017,0,0,0,.433,2.25L1.01,141.222a9.6,9.6,0,0,1,.181-8.916l2.91,2.1a6.01,6.01,0,0,0-.553,2.527Z" transform="translate(0 -127.354)" fill="#ffc107"/>
  <path id="Path_4754" data-name="Path 4754" d="M64.585,178.249l.876-.6a6.051,6.051,0,0,1,.12-4.777l-.84-.607a6.063,6.063,0,0,0-.156,5.984Z" transform="translate(-61.48 -165.817)" fill="#ffb300"/>
</svg>
