<svg xmlns="http://www.w3.org/2000/svg" width="26" height="17" viewBox="0 0 26 17"><defs><style>.a{fill:#fff;stroke:#000;stroke-width:0.4px;}.b{fill:#5f6368;}.c{fill:#4285f4;}.d{fill:#34a853;}.e{fill:#fbbc04;}.f{fill:#ea4335;}.g{stroke:none;}.h{fill:none;}</style></defs><g transform="translate(-421 -2404)"><g class="a" transform="translate(421 2404)"><rect class="g" width="26" height="17" rx="1.5"/><rect class="h" x="0.2" y="0.2" width="25.6" height="16.6" rx="1.3"/></g><g transform="translate(423.446 2407.998)"><g transform="translate(8.989 0.502)"><path class="b" d="M26.923,5.117V7.662h-.762V1.376H28.18a1.769,1.769,0,0,1,1.307.544,1.8,1.8,0,0,1,.546,1.326,1.791,1.791,0,0,1-.546,1.335,1.762,1.762,0,0,1-1.307.535H26.923Zm0-2.967V4.345H28.2a.975.975,0,0,0,.753-.325,1.118,1.118,0,0,0,.02-1.515l-.02-.021A.966.966,0,0,0,28.2,2.15Zm4.865,1.071a1.82,1.82,0,0,1,1.333.478,1.754,1.754,0,0,1,.488,1.312V7.662h-.728v-.6h-.034a1.437,1.437,0,0,1-1.258.737,1.577,1.577,0,0,1-1.118-.421,1.381,1.381,0,0,1-.451-1.053,1.308,1.308,0,0,1,.476-1.062,1.925,1.925,0,0,1,1.271-.395,2.146,2.146,0,0,1,1.117.263V4.949a.942.942,0,0,0-.314-.714,1.043,1.043,0,0,0-.735-.294,1.152,1.152,0,0,0-1.01.571l-.67-.448a1.828,1.828,0,0,1,1.637-.842ZM30.8,6.346a.659.659,0,0,0,.252.527.894.894,0,0,0,.592.211,1.182,1.182,0,0,0,.857-.377,1.212,1.212,0,0,0,.378-.887,1.492,1.492,0,0,0-.993-.3,1.233,1.233,0,0,0-.774.237A.721.721,0,0,0,30.8,6.346Zm6.986-2.984-2.543,6.2h-.785L35.4,7.389l-1.67-4.028h.825l1.209,3.089h.016L36.96,3.361Z" transform="translate(-26.161 -1.376)"/></g><path class="c" d="M13.177,8.853a4.546,4.546,0,0,0-.059-.735H9.907v1.39h1.839a1.68,1.68,0,0,1-.68,1.1v.9h1.1a3.643,3.643,0,0,0,1.013-2.657Z" transform="translate(-6.503 -5.159)"/><path class="d" d="M4.1,14.722a3.147,3.147,0,0,0,2.256-.872l-1.1-.9a1.963,1.963,0,0,1-1.8.221A2.133,2.133,0,0,1,2.186,11.8H1.056v.931A3.387,3.387,0,0,0,4.1,14.722Z" transform="translate(-0.693 -7.499)"/><path class="e" d="M1.493,7.77a2.288,2.288,0,0,1,0-1.382V5.459H.363a3.807,3.807,0,0,0,0,3.244Z" transform="translate(0 -3.469)"/><path class="f" d="M4.1,1.429A1.792,1.792,0,0,1,5.4,1.971L6.375.94A3.174,3.174,0,0,0,4.1,0a3.39,3.39,0,0,0-3.041,1.99l1.13.931A2.053,2.053,0,0,1,4.1,1.429Z" transform="translate(-0.693 0.001)"/></g></g></svg>