<svg xmlns="http://www.w3.org/2000/svg" width="78" height="78" viewBox="0 0 78 78"><defs><style>.a{fill:#315b4d;opacity:0.75;}.b{fill:#fff;}</style></defs><g transform="translate(-139 -385)"><circle class="a" cx="39" cy="39" r="39" transform="translate(139 385)"/><path class="b" d="M82.989,30.351a5.926,5.926,0,0,1-1.8-2.452c-1.552-3.284-1.877-7.909-1.877-11.211,0-.014,0-.029,0-.043A10.821,10.821,0,0,0,72.94,6.83V4.249A4.25,4.25,0,0,0,68.7,0h-.352a4.25,4.25,0,0,0-4.242,4.249V6.83a10.821,10.821,0,0,0-6.371,9.857c0,3.3-.326,7.928-1.877,11.211a5.925,5.925,0,0,1-1.8,2.452,1.086,1.086,0,0,0-.6,1.235,1.137,1.137,0,0,0,1.12.873h8.19a5.753,5.753,0,0,0,11.5,0h8.19a1.137,1.137,0,0,0,1.12-.873A1.086,1.086,0,0,0,82.989,30.351ZM66.341,4.249a2.011,2.011,0,0,1,2.007-2.01H68.7a2.011,2.011,0,0,1,2.007,2.01V6.1a10.822,10.822,0,0,0-4.365,0V4.249ZM68.523,35.9a3.526,3.526,0,0,1-3.518-3.441h7.035A3.526,3.526,0,0,1,68.523,35.9Zm4.5-5.679H57.127a11.712,11.712,0,0,0,.586-1.028c1.5-2.953,2.257-7.161,2.257-12.506a8.553,8.553,0,1,1,17.106,0c0,.014,0,.027,0,.041,0,5.324.764,9.516,2.257,12.461a11.719,11.719,0,0,0,.586,1.028Z" transform="translate(109.672 404.755)"/></g></svg>