<svg xmlns="http://www.w3.org/2000/svg" width="22.063" height="22.063" viewBox="0 0 22.063 22.063"><path d="M20.322,14.527a12.594,12.594,0,0,1-3.959-.631,1.7,1.7,0,0,0-1.722.365l-2.5,1.892A13.991,13.991,0,0,1,5.91,9.927L7.75,7.482a1.758,1.758,0,0,0,.431-1.777,12.628,12.628,0,0,1-.633-3.963A1.744,1.744,0,0,0,5.806,0H1.742A1.744,1.744,0,0,0,0,1.742,20.345,20.345,0,0,0,20.322,22.063a1.744,1.744,0,0,0,1.742-1.742V16.269A1.744,1.744,0,0,0,20.322,14.527Zm.581,5.795a.582.582,0,0,1-.581.581A19.182,19.182,0,0,1,1.161,1.742a.582.582,0,0,1,.581-.581H5.806a.582.582,0,0,1,.581.581,13.786,13.786,0,0,0,.687,4.32.643.643,0,0,1-.2.662l-2.113,2.8a.581.581,0,0,0-.053.613,15.236,15.236,0,0,0,7.221,7.221.578.578,0,0,0,.614-.053L15.4,15.136A.582.582,0,0,1,15.993,15a13.777,13.777,0,0,0,4.329.691.582.582,0,0,1,.581.581v4.053Z"/></svg>