<svg xmlns="http://www.w3.org/2000/svg" width="78" height="78" viewBox="0 0 78 78">
  <g id="Request" transform="translate(-167 -280)">
    <circle id="Ellipse_14" data-name="Ellipse 14" cx="39" cy="39" r="39" transform="translate(167 280)" fill="#315b4d" opacity="0.75"/>
    <g id="booking_1_" data-name="booking (1)" transform="translate(190 303)">
      <g id="Group_3179" data-name="Group 3179">
        <g id="Group_3178" data-name="Group 3178">
          <path id="Path_4758" data-name="Path 4758" d="M30.147,4.385H29.6V1.644A1.646,1.646,0,0,0,27.954,0h-1.1a1.646,1.646,0,0,0-1.644,1.644V4.385H7.674V1.644A1.646,1.646,0,0,0,6.029,0h-1.1A1.646,1.646,0,0,0,3.289,1.644V4.385H2.741A2.744,2.744,0,0,0,0,7.126V30.147a2.744,2.744,0,0,0,2.741,2.741H30.147a2.744,2.744,0,0,0,2.741-2.741V7.126A2.744,2.744,0,0,0,30.147,4.385Zm-3.837.548V1.644a.548.548,0,0,1,.548-.548h1.1a.548.548,0,0,1,.548.548V7.126a.548.548,0,0,1-.548.548h-1.1a.548.548,0,0,1-.548-.548Zm-21.925,0V1.644A.548.548,0,0,1,4.933,1.1h1.1a.548.548,0,0,1,.548.548V7.126a.548.548,0,0,1-.548.548h-1.1a.548.548,0,0,1-.548-.548ZM31.791,30.147a1.646,1.646,0,0,1-1.644,1.644H2.741A1.646,1.646,0,0,1,1.1,30.147v-15.9h30.7Zm0-16.992H1.1V7.126A1.646,1.646,0,0,1,2.741,5.481h.548V7.126A1.646,1.646,0,0,0,4.933,8.77h1.1A1.646,1.646,0,0,0,7.674,7.126V5.481h17.54V7.126A1.646,1.646,0,0,0,26.858,8.77h1.1A1.646,1.646,0,0,0,29.6,7.126V5.481h.548a1.646,1.646,0,0,1,1.644,1.644Z" fill="#fff"/>
        </g>
      </g>
      <g id="Group_3181" data-name="Group 3181" transform="translate(9.866 7.126)">
        <g id="Group_3180" data-name="Group 3180">
          <path id="Path_4759" data-name="Path 4759" d="M156.607,104H144.548a.548.548,0,0,0-.548.548v3.289a.548.548,0,0,0,.548.548h12.059a.548.548,0,0,0,.548-.548v-3.289A.548.548,0,0,0,156.607,104Zm-.548,3.289H145.1V105.1h10.963Z" transform="translate(-144 -104)" fill="#fff"/>
        </g>
      </g>
      <g id="Group_3183" data-name="Group 3183" transform="translate(3.289 15.896)">
        <g id="Group_3182" data-name="Group 3182">
          <path id="Path_4760" data-name="Path 4760" d="M51.837,232H48.548a.548.548,0,0,0-.548.548v2.741a.548.548,0,0,0,.548.548h3.289a.548.548,0,0,0,.548-.548v-2.741A.548.548,0,0,0,51.837,232Zm-.548,2.741H49.1V233.1h2.193Z" transform="translate(-48 -232)" fill="#fff"/>
        </g>
      </g>
      <g id="Group_3185" data-name="Group 3185" transform="translate(10.414 15.896)">
        <g id="Group_3184" data-name="Group 3184">
          <path id="Path_4761" data-name="Path 4761" d="M155.837,232h-3.289a.548.548,0,0,0-.548.548v2.741a.548.548,0,0,0,.548.548h3.289a.548.548,0,0,0,.548-.548v-2.741A.548.548,0,0,0,155.837,232Zm-.548,2.741H153.1V233.1h2.193Z" transform="translate(-152 -232)" fill="#fff"/>
        </g>
      </g>
      <g id="Group_3187" data-name="Group 3187" transform="translate(18.088 15.896)">
        <g id="Group_3186" data-name="Group 3186">
          <path id="Path_4762" data-name="Path 4762" d="M267.837,232h-3.289a.548.548,0,0,0-.548.548v2.741a.548.548,0,0,0,.548.548h3.289a.548.548,0,0,0,.548-.548v-2.741A.548.548,0,0,0,267.837,232Zm-.548,2.741H265.1V233.1h2.193Z" transform="translate(-264 -232)" fill="#fff"/>
        </g>
      </g>
      <g id="Group_3189" data-name="Group 3189" transform="translate(25.214 15.896)">
        <g id="Group_3188" data-name="Group 3188">
          <path id="Path_4763" data-name="Path 4763" d="M371.837,232h-3.289a.548.548,0,0,0-.548.548v2.741a.548.548,0,0,0,.548.548h3.289a.548.548,0,0,0,.548-.548v-2.741A.548.548,0,0,0,371.837,232Zm-.548,2.741H369.1V233.1h2.193Z" transform="translate(-368 -232)" fill="#fff"/>
        </g>
      </g>
      <g id="Group_3191" data-name="Group 3191" transform="translate(3.289 21.377)">
        <g id="Group_3190" data-name="Group 3190">
          <path id="Path_4764" data-name="Path 4764" d="M51.837,312H48.548a.548.548,0,0,0-.548.548v2.741a.548.548,0,0,0,.548.548h3.289a.548.548,0,0,0,.548-.548v-2.741A.548.548,0,0,0,51.837,312Zm-.548,2.741H49.1V313.1h2.193Z" transform="translate(-48 -312)" fill="#fff"/>
        </g>
      </g>
      <g id="Group_3193" data-name="Group 3193" transform="translate(10.414 21.377)">
        <g id="Group_3192" data-name="Group 3192">
          <path id="Path_4765" data-name="Path 4765" d="M155.837,312h-3.289a.548.548,0,0,0-.548.548v2.741a.548.548,0,0,0,.548.548h3.289a.548.548,0,0,0,.548-.548v-2.741A.548.548,0,0,0,155.837,312Zm-.548,2.741H153.1V313.1h2.193Z" transform="translate(-152 -312)" fill="#fff"/>
        </g>
      </g>
      <g id="Group_3195" data-name="Group 3195" transform="translate(18.088 21.377)">
        <g id="Group_3194" data-name="Group 3194">
          <path id="Path_4766" data-name="Path 4766" d="M267.837,312h-3.289a.548.548,0,0,0-.548.548v2.741a.548.548,0,0,0,.548.548h3.289a.548.548,0,0,0,.548-.548v-2.741A.548.548,0,0,0,267.837,312Zm-.548,2.741H265.1V313.1h2.193Z" transform="translate(-264 -312)" fill="#fff"/>
        </g>
      </g>
      <g id="Group_3197" data-name="Group 3197" transform="translate(25.214 21.377)">
        <g id="Group_3196" data-name="Group 3196">
          <path id="Path_4767" data-name="Path 4767" d="M371.837,312h-3.289a.548.548,0,0,0-.548.548v2.741a.548.548,0,0,0,.548.548h3.289a.548.548,0,0,0,.548-.548v-2.741A.548.548,0,0,0,371.837,312Zm-.548,2.741H369.1V313.1h2.193Z" transform="translate(-368 -312)" fill="#fff"/>
        </g>
      </g>
      <g id="Group_3199" data-name="Group 3199" transform="translate(3.289 26.858)">
        <g id="Group_3198" data-name="Group 3198">
          <path id="Path_4768" data-name="Path 4768" d="M51.837,392H48.548a.548.548,0,0,0-.548.548v2.741a.548.548,0,0,0,.548.548h3.289a.548.548,0,0,0,.548-.548v-2.741A.548.548,0,0,0,51.837,392Zm-.548,2.741H49.1V393.1h2.193Z" transform="translate(-48 -392)" fill="#fff"/>
        </g>
      </g>
      <g id="Group_3201" data-name="Group 3201" transform="translate(10.414 26.858)">
        <g id="Group_3200" data-name="Group 3200">
          <path id="Path_4769" data-name="Path 4769" d="M155.837,392h-3.289a.548.548,0,0,0-.548.548v2.741a.548.548,0,0,0,.548.548h3.289a.548.548,0,0,0,.548-.548v-2.741A.548.548,0,0,0,155.837,392Zm-.548,2.741H153.1V393.1h2.193Z" transform="translate(-152 -392)" fill="#fff"/>
        </g>
      </g>
      <g id="Group_3203" data-name="Group 3203" transform="translate(17.701 26.507)">
        <g id="Group_3202" data-name="Group 3202">
          <path id="Path_4770" data-name="Path 4770" d="M262.7,386.88l-2.356,2.828-1.22-1.22-.775.775,1.644,1.644a.544.544,0,0,0,.387.161h.025a.552.552,0,0,0,.4-.2l2.741-3.289Z" transform="translate(-258.344 -386.88)" fill="#fff"/>
        </g>
      </g>
      <g id="Group_3205" data-name="Group 3205" transform="translate(24.278 26.507)">
        <g id="Group_3204" data-name="Group 3204">
          <path id="Path_4771" data-name="Path 4771" d="M358.7,386.88l-2.356,2.828-1.22-1.22-.775.775,1.644,1.644a.545.545,0,0,0,.388.161h.025a.552.552,0,0,0,.4-.2l2.741-3.289Z" transform="translate(-354.344 -386.88)" fill="#fff"/>
        </g>
      </g>
    </g>
  </g>
</svg>
