<svg id="booking_1_" data-name="booking (1)" xmlns="http://www.w3.org/2000/svg" width="20.983" height="20.983" viewBox="0 0 20.983 20.983">
  <g id="Group_3179" data-name="Group 3179">
    <g id="Group_3178" data-name="Group 3178">
      <path id="Path_4758" data-name="Path 4758" d="M19.234,2.8h-.35V1.049A1.05,1.05,0,0,0,17.836,0h-.7a1.05,1.05,0,0,0-1.049,1.049V2.8H4.9V1.049A1.05,1.05,0,0,0,3.847,0h-.7A1.05,1.05,0,0,0,2.1,1.049V2.8h-.35A1.751,1.751,0,0,0,0,4.546V19.234a1.751,1.751,0,0,0,1.749,1.749H19.234a1.751,1.751,0,0,0,1.749-1.749V4.546A1.751,1.751,0,0,0,19.234,2.8Zm-2.448.35v-2.1a.35.35,0,0,1,.35-.35h.7a.35.35,0,0,1,.35.35v3.5a.35.35,0,0,1-.35.35h-.7a.35.35,0,0,1-.35-.35ZM2.8,3.147v-2.1A.35.35,0,0,1,3.147.7h.7a.35.35,0,0,1,.35.35v3.5a.35.35,0,0,1-.35.35h-.7a.35.35,0,0,1-.35-.35ZM20.284,19.234a1.05,1.05,0,0,1-1.049,1.049H1.749A1.05,1.05,0,0,1,.7,19.234V9.093H20.284Zm0-10.841H.7V4.546A1.05,1.05,0,0,1,1.749,3.5H2.1V4.546A1.05,1.05,0,0,0,3.147,5.6h.7A1.05,1.05,0,0,0,4.9,4.546V3.5H16.087V4.546A1.05,1.05,0,0,0,17.136,5.6h.7a1.05,1.05,0,0,0,1.049-1.049V3.5h.35a1.05,1.05,0,0,1,1.049,1.049Z" fill="#8e8e8e"/>
    </g>
  </g>
  <g id="Group_3181" data-name="Group 3181" transform="translate(6.295 4.546)">
    <g id="Group_3180" data-name="Group 3180">
      <path id="Path_4759" data-name="Path 4759" d="M152.043,104H144.35a.349.349,0,0,0-.35.35v2.1a.349.349,0,0,0,.35.35h7.694a.349.349,0,0,0,.35-.35v-2.1A.349.349,0,0,0,152.043,104Zm-.35,2.1H144.7v-1.4h6.994Z" transform="translate(-144 -104)" fill="#8e8e8e"/>
    </g>
  </g>
  <g id="Group_3183" data-name="Group 3183" transform="translate(2.098 10.142)">
    <g id="Group_3182" data-name="Group 3182">
      <path id="Path_4760" data-name="Path 4760" d="M50.448,232h-2.1a.349.349,0,0,0-.35.35V234.1a.349.349,0,0,0,.35.35h2.1a.349.349,0,0,0,.35-.35V232.35A.349.349,0,0,0,50.448,232Zm-.35,1.749H48.7V232.7h1.4Z" transform="translate(-48 -232)" fill="#8e8e8e"/>
    </g>
  </g>
  <g id="Group_3185" data-name="Group 3185" transform="translate(6.645 10.142)">
    <g id="Group_3184" data-name="Group 3184">
      <path id="Path_4761" data-name="Path 4761" d="M154.448,232h-2.1a.349.349,0,0,0-.35.35V234.1a.349.349,0,0,0,.35.35h2.1a.349.349,0,0,0,.35-.35V232.35A.349.349,0,0,0,154.448,232Zm-.35,1.749h-1.4V232.7h1.4Z" transform="translate(-152 -232)" fill="#8e8e8e"/>
    </g>
  </g>
  <g id="Group_3187" data-name="Group 3187" transform="translate(11.541 10.142)">
    <g id="Group_3186" data-name="Group 3186">
      <path id="Path_4762" data-name="Path 4762" d="M266.448,232h-2.1a.349.349,0,0,0-.35.35V234.1a.349.349,0,0,0,.35.35h2.1a.349.349,0,0,0,.35-.35V232.35A.349.349,0,0,0,266.448,232Zm-.35,1.749h-1.4V232.7h1.4Z" transform="translate(-264 -232)" fill="#8e8e8e"/>
    </g>
  </g>
  <g id="Group_3189" data-name="Group 3189" transform="translate(16.087 10.142)">
    <g id="Group_3188" data-name="Group 3188">
      <path id="Path_4763" data-name="Path 4763" d="M370.448,232h-2.1a.349.349,0,0,0-.35.35V234.1a.349.349,0,0,0,.35.35h2.1a.349.349,0,0,0,.35-.35V232.35A.349.349,0,0,0,370.448,232Zm-.35,1.749h-1.4V232.7h1.4Z" transform="translate(-368 -232)" fill="#8e8e8e"/>
    </g>
  </g>
  <g id="Group_3191" data-name="Group 3191" transform="translate(2.098 13.639)">
    <g id="Group_3190" data-name="Group 3190">
      <path id="Path_4764" data-name="Path 4764" d="M50.448,312h-2.1a.349.349,0,0,0-.35.35V314.1a.349.349,0,0,0,.35.35h2.1a.349.349,0,0,0,.35-.35V312.35A.349.349,0,0,0,50.448,312Zm-.35,1.749H48.7V312.7h1.4Z" transform="translate(-48 -312)" fill="#8e8e8e"/>
    </g>
  </g>
  <g id="Group_3193" data-name="Group 3193" transform="translate(6.645 13.639)">
    <g id="Group_3192" data-name="Group 3192">
      <path id="Path_4765" data-name="Path 4765" d="M154.448,312h-2.1a.349.349,0,0,0-.35.35V314.1a.349.349,0,0,0,.35.35h2.1a.349.349,0,0,0,.35-.35V312.35A.349.349,0,0,0,154.448,312Zm-.35,1.749h-1.4V312.7h1.4Z" transform="translate(-152 -312)" fill="#8e8e8e"/>
    </g>
  </g>
  <g id="Group_3195" data-name="Group 3195" transform="translate(11.541 13.639)">
    <g id="Group_3194" data-name="Group 3194">
      <path id="Path_4766" data-name="Path 4766" d="M266.448,312h-2.1a.349.349,0,0,0-.35.35V314.1a.349.349,0,0,0,.35.35h2.1a.349.349,0,0,0,.35-.35V312.35A.349.349,0,0,0,266.448,312Zm-.35,1.749h-1.4V312.7h1.4Z" transform="translate(-264 -312)" fill="#8e8e8e"/>
    </g>
  </g>
  <g id="Group_3197" data-name="Group 3197" transform="translate(16.087 13.639)">
    <g id="Group_3196" data-name="Group 3196">
      <path id="Path_4767" data-name="Path 4767" d="M370.448,312h-2.1a.349.349,0,0,0-.35.35V314.1a.349.349,0,0,0,.35.35h2.1a.349.349,0,0,0,.35-.35V312.35A.349.349,0,0,0,370.448,312Zm-.35,1.749h-1.4V312.7h1.4Z" transform="translate(-368 -312)" fill="#8e8e8e"/>
    </g>
  </g>
  <g id="Group_3199" data-name="Group 3199" transform="translate(2.098 17.136)">
    <g id="Group_3198" data-name="Group 3198">
      <path id="Path_4768" data-name="Path 4768" d="M50.448,392h-2.1a.349.349,0,0,0-.35.35V394.1a.349.349,0,0,0,.35.35h2.1a.349.349,0,0,0,.35-.35V392.35A.349.349,0,0,0,50.448,392Zm-.35,1.749H48.7V392.7h1.4Z" transform="translate(-48 -392)" fill="#8e8e8e"/>
    </g>
  </g>
  <g id="Group_3201" data-name="Group 3201" transform="translate(6.645 17.136)">
    <g id="Group_3200" data-name="Group 3200">
      <path id="Path_4769" data-name="Path 4769" d="M154.448,392h-2.1a.349.349,0,0,0-.35.35V394.1a.349.349,0,0,0,.35.35h2.1a.349.349,0,0,0,.35-.35V392.35A.349.349,0,0,0,154.448,392Zm-.35,1.749h-1.4V392.7h1.4Z" transform="translate(-152 -392)" fill="#8e8e8e"/>
    </g>
  </g>
  <g id="Group_3203" data-name="Group 3203" transform="translate(11.293 16.912)">
    <g id="Group_3202" data-name="Group 3202">
      <path id="Path_4770" data-name="Path 4770" d="M261.12,386.88l-1.5,1.8-.779-.778-.495.494,1.049,1.049a.347.347,0,0,0,.247.1h.016a.352.352,0,0,0,.253-.125l1.749-2.1Z" transform="translate(-258.344 -386.88)" fill="#8e8e8e"/>
    </g>
  </g>
  <g id="Group_3205" data-name="Group 3205" transform="translate(15.49 16.912)">
    <g id="Group_3204" data-name="Group 3204">
      <path id="Path_4771" data-name="Path 4771" d="M357.12,386.88l-1.5,1.8-.778-.778-.494.494,1.049,1.049a.347.347,0,0,0,.247.1h.016a.352.352,0,0,0,.253-.125l1.749-2.1Z" transform="translate(-354.344 -386.88)" fill="#8e8e8e"/>
    </g>
  </g>
</svg>
