<svg xmlns="http://www.w3.org/2000/svg" width="19.837" height="21.611" viewBox="0 0 19.837 21.611">
  <g id="healthcare" transform="translate(-4 -3)">
    <path id="Path_4772" data-name="Path 4772" d="M179.015,5.263l1.752,1.748a.318.318,0,1,0,.449-.45l-1.751-1.748a2.455,2.455,0,1,1,4.025-2.642.318.318,0,0,0,.295.2h0a.318.318,0,0,0,.295-.2,2.455,2.455,0,1,1,4.026,2.642l-4.32,4.312L182.2,7.54a.318.318,0,1,0-.449.45L183.56,9.8c.188.172.273.172.449,0l4.545-4.537,0,0a3.091,3.091,0,1,0-4.773-3.886,3.091,3.091,0,1,0-4.773,3.886Z" transform="translate(-167.492 3)" fill="#8e8e8e"/>
    <path id="Path_4774" data-name="Path 4774" d="M40.7,235.019a1.17,1.17,0,0,0-1.591-.427l-4.065,2.347a1.167,1.167,0,0,0-1.125-.863H31.978a6.515,6.515,0,0,0-2.493-.656,4.262,4.262,0,0,0-3.114,1.468,6.57,6.57,0,0,0-.81,1.063l-.625-.625a.318.318,0,0,0-.45,0l-.678.678-.348-.348a.318.318,0,0,0-.45,0l-1.9,1.9a.318.318,0,0,0,0,.45l1.2,1.2a.318.318,0,1,0,.45-.449l-.973-.974,1.449-1.45,5.6,5.6-1.45,1.449-3.647-3.65a.318.318,0,1,0-.45.449l3.872,3.875a.318.318,0,0,0,.225.093h0a.318.318,0,0,0,.225-.093l1.9-1.9a.318.318,0,0,0,0-.45l-.669-.67.68-.68a.318.318,0,0,0,0-.45l-.621-.621h1.808a.318.318,0,0,0,0-.636H28.263l-2.237-2.237c.342-.6,1.518-2.36,3.459-2.36a6.114,6.114,0,0,1,2.319.635.317.317,0,0,0,.115.021h2a.529.529,0,1,1,0,1.057H30.079a.318.318,0,0,0,0,.636h3.839a1.157,1.157,0,0,0,1.066-.7l4.441-2.565a.531.531,0,0,1,.492.941l-5.36,4.189a1.8,1.8,0,0,1-1.1.38H32.092a.318.318,0,1,0,0,.636h1.363a2.436,2.436,0,0,0,1.495-.515l5.344-4.177A1.183,1.183,0,0,0,40.7,235.019Zm-12.306,7.569-4.135-4.135.453-.453,4.135,4.135Z" transform="translate(-17.018 -221.541)" fill="#8e8e8e"/>
  </g>
</svg>
