<svg xmlns="http://www.w3.org/2000/svg" width="20.699" height="20.699" viewBox="0 0 20.699 20.699">
  <g id="Group_3213" data-name="Group 3213" transform="translate(-2.139 -1.162)">
    <g id="settings" transform="translate(2.139 1.162)">
      <g id="Group_3206" data-name="Group 3206">
        <path id="Path_4777" data-name="Path 4777" d="M11.316,20.7H9.384A1.292,1.292,0,0,1,8.1,19.561L7.9,17.943a8.151,8.151,0,0,1-1.185-.491l-1.289,1a1.287,1.287,0,0,1-1.712-.109L2.352,16.986a1.283,1.283,0,0,1-.105-1.707l1-1.289a7.963,7.963,0,0,1-.491-1.185L1.136,12.6A1.3,1.3,0,0,1,0,11.316V9.384A1.292,1.292,0,0,1,1.138,8.1L2.756,7.9a8.15,8.15,0,0,1,.491-1.185l-1-1.289a1.286,1.286,0,0,1,.11-1.713L3.715,2.351a1.284,1.284,0,0,1,1.707-.105l1.289,1A8.121,8.121,0,0,1,7.9,2.757L8.1,1.136A1.292,1.292,0,0,1,9.384,0h1.932A1.292,1.292,0,0,1,12.6,1.138L12.8,2.756a8.121,8.121,0,0,1,1.186.491l1.289-1a1.286,1.286,0,0,1,1.712.11l1.358,1.358a1.283,1.283,0,0,1,.105,1.707l-1,1.289A7.963,7.963,0,0,1,17.943,7.9l1.621.206A1.293,1.293,0,0,1,20.7,9.384v1.932A1.292,1.292,0,0,1,19.561,12.6l-1.618.206a8.151,8.151,0,0,1-.491,1.185l1,1.289a1.285,1.285,0,0,1-.11,1.712l-1.358,1.358a1.282,1.282,0,0,1-1.707.105l-1.289-1a7.963,7.963,0,0,1-1.185.491L12.6,19.564A1.293,1.293,0,0,1,11.316,20.7ZM6.667,16.508a.437.437,0,0,1,.21.054,7.239,7.239,0,0,0,1.53.635.431.431,0,0,1,.309.36l.241,1.9a.436.436,0,0,0,.426.383h1.932a.434.434,0,0,0,.425-.379l.242-1.9a.431.431,0,0,1,.309-.36,7.239,7.239,0,0,0,1.53-.635.43.43,0,0,1,.474.036l1.509,1.173a.424.424,0,0,0,.565-.029l1.367-1.367a.426.426,0,0,0,.034-.569L16.6,14.3a.43.43,0,0,1-.036-.474,7.239,7.239,0,0,0,.635-1.53.431.431,0,0,1,.36-.309l1.9-.241a.437.437,0,0,0,.383-.427V9.384a.434.434,0,0,0-.379-.425l-1.9-.242a.431.431,0,0,1-.36-.309,7.239,7.239,0,0,0-.635-1.53A.429.429,0,0,1,16.6,6.4l1.173-1.509a.423.423,0,0,0-.028-.564L16.377,2.963a.425.425,0,0,0-.569-.034L14.3,4.1a.432.432,0,0,1-.475.036,7.209,7.209,0,0,0-1.53-.635.431.431,0,0,1-.309-.36l-.241-1.9a.438.438,0,0,0-.427-.384H9.384a.434.434,0,0,0-.425.379l-.242,1.9a.433.433,0,0,1-.309.361,7.207,7.207,0,0,0-1.53.634A.432.432,0,0,1,6.4,4.1L4.893,2.928a.423.423,0,0,0-.564.028L2.962,4.324a.426.426,0,0,0-.034.569L4.1,6.4a.43.43,0,0,1,.036.474A7.194,7.194,0,0,0,3.5,8.407a.431.431,0,0,1-.36.309l-1.9.241a.436.436,0,0,0-.383.426v1.932a.434.434,0,0,0,.379.425l1.9.242a.431.431,0,0,1,.36.309,7.239,7.239,0,0,0,.635,1.53A.429.429,0,0,1,4.1,14.3L2.927,15.806a.423.423,0,0,0,.028.564l1.367,1.367a.426.426,0,0,0,.569.034L6.4,16.6a.444.444,0,0,1,.266-.09Z" transform="translate(0 0)" fill="#8e8e8e"/>
      </g>
      <g id="Group_3207" data-name="Group 3207" transform="translate(6.037 6.037)">
        <path id="Path_4778" data-name="Path 4778" d="M11.312,15.625a4.312,4.312,0,1,1,4.312-4.312A4.317,4.317,0,0,1,11.312,15.625Zm0-7.762a3.45,3.45,0,1,0,3.45,3.45A3.453,3.453,0,0,0,11.312,7.862Z" transform="translate(-7 -7)" fill="#8e8e8e"/>
      </g>
    </g>
  </g>
</svg>
