<svg xmlns="http://www.w3.org/2000/svg" width="78" height="78" viewBox="0 0 78 78">
  <g id="Group_3483" data-name="Group 3483" transform="translate(-143 -236)">
    <circle id="Ellipse_13" data-name="Ellipse 13" cx="39" cy="39" r="39" transform="translate(143 236)" fill="#315b4d" opacity="0.75"/>
    <g id="wallet" transform="translate(159.695 252.694)">
      <g id="Group_3482" data-name="Group 3482" transform="translate(0 0)">
        <g id="Group_3481" data-name="Group 3481" transform="translate(0 0)">
          <path id="Path_15170" data-name="Path 15170" d="M42.5,22.447V16.189a4.039,4.039,0,0,0-3.725-4.015L32.962,2.025A4,4,0,0,0,27.469.545l-19.92,11.6H4.05A4.051,4.051,0,0,0,0,16.189V40.472A4.051,4.051,0,0,0,4.05,44.519h34.4A4.051,4.051,0,0,0,42.5,40.472V34.215a3.03,3.03,0,0,0,2.024-2.849V25.3A3.03,3.03,0,0,0,42.5,22.447Zm-6.076-10.3H27.6l6.614-3.851Zm-3.21-5.607-9.631,5.607H19.587L32.213,4.791ZM28.487,2.294a1.957,1.957,0,0,1,1.5-.2,1.984,1.984,0,0,1,1.215.94l0,0L15.565,12.142H11.571ZM40.475,40.472A2.026,2.026,0,0,1,38.451,42.5H4.05a2.026,2.026,0,0,1-2.024-2.024V16.189A2.026,2.026,0,0,1,4.05,14.166h34.4a2.026,2.026,0,0,1,2.024,2.024V22.26H34.4a6.071,6.071,0,1,0,0,12.141h6.071ZM42.5,31.366a1.013,1.013,0,0,1-1.012,1.012H34.4a4.047,4.047,0,1,1,0-8.094h7.083A1.013,1.013,0,0,1,42.5,25.3Z" transform="translate(-0.003 0)" fill="#fff"/>
          <path id="Path_15171" data-name="Path 15171" d="M343.361,277.341a2.024,2.024,0,1,0,2.024,2.024A2.026,2.026,0,0,0,343.361,277.341Z" transform="translate(-308.96 -251.034)" fill="#fff"/>
        </g>
      </g>
    </g>
  </g>
</svg>
