<svg id="Group_3500" data-name="Group 3500" xmlns="http://www.w3.org/2000/svg" width="23" height="23" viewBox="0 0 23 23">
  <path id="Path_4820" data-name="Path 4820" d="M11.5,0H11.5A11.493,11.493,0,0,0,2.189,18.24L.756,22.513,5.176,21.1A11.5,11.5,0,1,0,11.5,0Z" fill="#4caf50"/>
  <path id="Path_4821" data-name="Path 4821" d="M120.64,128.068a3.245,3.245,0,0,1-2.257,1.623c-.6.128-1.386.23-4.028-.865a14.406,14.406,0,0,1-5.726-5.057,6.568,6.568,0,0,1-1.366-3.469,3.671,3.671,0,0,1,1.176-2.8,1.671,1.671,0,0,1,1.176-.413c.142,0,.27.007.385.013.338.014.507.035.73.568.277.668.953,2.319,1.034,2.488a.685.685,0,0,1,.049.622,1.987,1.987,0,0,1-.372.528c-.17.2-.331.345-.5.555-.155.183-.331.378-.135.716a10.207,10.207,0,0,0,1.866,2.319,8.455,8.455,0,0,0,2.7,1.663.727.727,0,0,0,.811-.128,13.912,13.912,0,0,0,.9-1.19.642.642,0,0,1,.825-.25c.311.108,1.954.92,2.291,1.088s.561.25.643.392A2.864,2.864,0,0,1,120.64,128.068Z" transform="translate(-102.446 -111.828)" fill="#fafafa"/>
</svg>
